<svg xmlns="http://www.w3.org/2000/svg" viewBox="0 0 96 96" fill="none">
  <defs>
    <linearGradient id="stomachGrad" x1="0%" y1="0%" x2="100%" y2="100%">
      <stop offset="0%" stop-color="#FB923C"/>
      <stop offset="60%" stop-color="#EA580C"/>
      <stop offset="100%" stop-color="#C2410C"/>
    </linearGradient>
    <linearGradient id="intestineGrad" x1="0%" y1="0%" x2="100%" y2="100%">
      <stop offset="0%" stop-color="#FED7AA"/>
      <stop offset="100%" stop-color="#FDBA74"/>
    </linearGradient>
    <linearGradient id="glowEnzyme" x1="0%" y1="0%" x2="100%" y2="100%">
      <stop offset="0%" stop-color="#FDE047"/>
      <stop offset="100%" stop-color="#CA8A04"/>
    </linearGradient>
  </defs>

  <!-- Background Circle Soft Tint -->
  <circle cx="48" cy="48" r="46" fill="#FFF7ED" stroke="#FFEDD5" stroke-width="2"/>

  <!-- Esophagus -->
  <path d="M48 10 L48 24 C48 26 49 28 50 30" stroke="#FDBA74" stroke-width="5" stroke-linecap="round"/>

  <!-- Stomach J-shape -->
  <path d="M50 28 C45 27 34 30 32 40 C30 50 35 60 46 62 C57 64 64 57 65 47 C66 38 60 32 54 30 C51 29 48 31 46 34" fill="url(#stomachGrad)" stroke="#9A3412" stroke-width="2" stroke-linejoin="round"/>

  <!-- Stomach inner digestive glow aura -->
  <ellipse cx="48" cy="46" rx="8" ry="6" fill="#FEF08A" opacity="0.6"/>
  <circle cx="48" cy="46" r="3" fill="#EAB308" opacity="0.8"/>

  <!-- Duodenum & Intestines -->
  <path d="M46 62 C46 66 50 70 54 70 C58 70 60 67 60 64" fill="none" stroke="#EA580C" stroke-width="4.5" stroke-linecap="round"/>
  
  <!-- Intestine Loops -->
  <path d="M36 72 C36 68 44 68 48 72 C52 76 60 76 60 72 C60 68 64 74 62 78 C60 82 54 82 50 78 C46 74 40 74 38 78 C36 82 32 76 36 72 Z" fill="url(#intestineGrad)" stroke="#C2410C" stroke-width="1.8"/>

  <!-- Sparkles of Healthy Gut / Digestion -->
  <path d="M68 26 L70 30 L74 32 L70 34 L68 38 L66 34 L62 32 L66 30 Z" fill="url(#glowEnzyme)"/>
  <path d="M26 48 L27.5 51 L30.5 52.5 L27.5 54 L26 57 L24.5 54 L21.5 52.5 L24.5 51 Z" fill="url(#glowEnzyme)"/>
</svg>
